<svg width="157" height="115" viewBox="0 0 157 115" fill="none" xmlns="http://www.w3.org/2000/svg">
<path d="M35.66 63.8108V31.2703L71.615 39.5946L77.735 52.4595L61.67 71.3784L35.66 63.8108L71.615 85.7568L103.745 94.8378L122.105 113L155 80.4595L135.11 63.8108L122.105 38.0811L93.8 16.1351L26.48 10.0811L22.655 16.1351H9.65L2 10.0811L22.655 1H54.02L84.62 7.05405L93.8 16.1351L122.105 38.0811L135.11 63.8108L155 80.4595L122.105 113L103.745 94.8378L71.615 85.7568L35.66 63.8108Z" fill="#FFAB42"/>
<path d="M35.66 63.8108V31.2703L71.615 39.5946L77.735 52.4595M35.66 63.8108L61.67 71.3784L77.735 52.4595M35.66 63.8108L71.615 85.7568L103.745 94.8378L122.105 113L155 80.4595L135.11 63.8108L122.105 38.0811L93.8 16.1351M77.735 52.4595L99.155 61.5405M93.8 16.1351L26.48 10.0811L22.655 16.1351H9.65L2 10.0811L22.655 1H54.02L84.62 7.05405L93.8 16.1351Z" stroke="white" stroke-width="2"/>
<path d="M35.9477 31.2059L23 16.0588L27.5698 10L94.593 16.0588L122.773 38.0221L134.959 63.7721L154 81.1912L121.25 113L102.971 94.0662L70.9826 84.9779L35.9477 63.7721L62.6047 70.5882L77.8372 52.4118L70.9826 39.5368L35.9477 31.2059Z" fill="#4CAF50"/>
<path d="M77.8372 52.4118L70.9826 39.5368L35.9477 31.2059L23 16.0588L27.5698 10L94.593 16.0588L122.773 38.0221L134.959 63.7721L154 81.1912L121.25 113L102.971 94.0662L70.9826 84.9779L35.9477 63.7721L62.6047 70.5882L77.8372 52.4118ZM77.8372 52.4118L94.593 61.5" stroke="white"/>
<path d="M23 16L36 32" stroke="white" stroke-width="2"/>
<path d="M36 47L73 57" stroke="white" stroke-width="2"/>
</svg>
